<?xml version="1.0" encoding="utf-8"?>
<!-- Generator: Adobe Illustrator 14.0.0, SVG Export Plug-In . SVG Version: 6.00 Build 43363)  -->
<!DOCTYPE svg PUBLIC "-//W3C//DTD SVG 1.1//EN" "http://www.w3.org/Graphics/SVG/1.1/DTD/svg11.dtd">
<svg version="1.1" id="Layer_1" xmlns="http://www.w3.org/2000/svg" xmlns:xlink="http://www.w3.org/1999/xlink" x="0px" y="0px"
	 width="30px" height="30px" viewBox="0 0 30 30" enable-background="new 0 0 30 30" xml:space="preserve">
<g>
	<g>
		<g>
			<path fill="#FFFFFF" d="M25.605,4.393c-2.832-2.833-6.603-4.394-10.606-4.394S7.226,1.56,4.393,4.393S0,10.993,0,15
				s1.56,7.771,4.393,10.605S10.993,30,14.999,30s7.774-1.561,10.606-4.395C28.439,22.771,30,19.006,30,15
				S28.439,7.226,25.605,4.393z M15,28.241c-7.302,0-13.242-5.939-13.242-13.242C1.758,7.697,7.698,1.757,15,1.757
				c7.301,0,13.243,5.94,13.243,13.242C28.242,22.302,22.301,28.241,15,28.241z"/>
		</g>
	</g>
	<g>
		<g>
			<rect x="10.605" y="23.407" fill="#FFFFFF" width="1.758" height="1.758"/>
		</g>
	</g>
	<g>
		<g>
			<rect x="14.121" y="23.407" fill="#FFFFFF" width="1.758" height="1.758"/>
		</g>
	</g>
	<g>
		<g>
			<rect x="17.637" y="23.407" fill="#FFFFFF" width="1.758" height="1.758"/>
		</g>
	</g>
	<g>
		<g>
			<path fill="#FFFFFF" d="M15,3.515c-6.333,0-11.484,5.152-11.484,11.484c0,3.063,1.196,5.944,3.367,8.117l0.622,0.62l2.482-2.48
				l-1.244-1.242l-1.211,1.211c-1.275-1.521-2.043-3.373-2.219-5.346h1.718v-1.758H5.313c0.182-2.022,0.985-3.87,2.218-5.346
				l1.211,1.211l1.243-1.243l-1.21-1.211c1.477-1.234,3.323-2.037,5.346-2.219V7.03h1.758V5.314
				c2.021,0.182,3.869,0.985,5.346,2.219l-1.211,1.21l1.242,1.243l1.211-1.211c1.234,1.476,2.037,3.323,2.219,5.346h-1.717v1.758
				h1.719c-0.178,1.973-0.942,3.823-2.221,5.346l-1.211-1.211l-1.242,1.242l2.481,2.48l0.622-0.62
				c2.172-2.173,3.367-5.056,3.367-8.117C26.484,8.667,21.332,3.515,15,3.515z"/>
		</g>
	</g>
	<g>
		<g>
			<path fill="#FFFFFF" d="M17.807,17.883L15,8.79l-2.804,9.081l-0.004,0.013c-0.08,0.273-0.122,0.564-0.122,0.837
				c0,1.615,1.314,2.932,2.93,2.932s2.93-1.313,2.93-2.932C17.93,18.445,17.887,18.157,17.807,17.883z M15,19.893
				c-0.646,0-1.172-0.524-1.172-1.173c0-0.104,0.018-0.229,0.05-0.34L15,14.748l1.122,3.632c0.032,0.111,0.051,0.236,0.051,0.34
				C16.172,19.366,15.646,19.893,15,19.893z"/>
		</g>
	</g>
</g>
</svg>
