<?xml version="1.0" encoding="utf-8"?>
<!-- Generator: Adobe Illustrator 14.0.0, SVG Export Plug-In . SVG Version: 6.00 Build 43363)  -->
<!DOCTYPE svg PUBLIC "-//W3C//DTD SVG 1.1//EN" "http://www.w3.org/Graphics/SVG/1.1/DTD/svg11.dtd">
<svg version="1.1" id="Layer_1" xmlns="http://www.w3.org/2000/svg" xmlns:xlink="http://www.w3.org/1999/xlink" x="0px" y="0px"
	 width="16px" height="16px" viewBox="0 0 16 16" enable-background="new 0 0 16 16" xml:space="preserve">
<g id="surface1">
	<path fill="#5225B5" d="M11.61,6.961V3.916c0-0.087-0.04-0.167-0.098-0.232L8.097,0.098C8.033,0.032,7.944-0.006,7.853-0.006H2.438
		c-1,0-1.799,0.815-1.799,1.815v10.238c0,1,0.798,1.802,1.799,1.802h4.274c0.808,1.343,2.278,2.241,3.951,2.241
		c2.544,0,4.62-2.067,4.62-4.612C15.287,9.254,13.69,7.395,11.61,6.961z M8.188,1.17l2.292,2.412H8.993
		c-0.443,0-0.806-0.366-0.806-0.809V1.17z M2.438,13.179c-0.627,0-1.128-0.504-1.128-1.131V1.809c0-0.63,0.5-1.145,1.128-1.145
		h5.079v2.108c0,0.816,0.662,1.482,1.478,1.482h1.946v2.619c-0.101-0.003-0.182-0.014-0.27-0.014c-1.17,0-2.248,0.45-3.06,1.154
		H3.351c-0.185,0-0.336,0.151-0.336,0.335c0,0.185,0.151,0.339,0.336,0.339h3.637C6.75,9.022,6.551,9.356,6.396,9.726H3.351
		c-0.185,0-0.336,0.152-0.336,0.337s0.152,0.335,0.336,0.335h2.829c-0.083,0.336-0.127,0.708-0.127,1.081
		c0,0.604,0.117,1.199,0.328,1.704H2.438V13.179z M10.667,15.424c-2.174,0-3.942-1.77-3.942-3.943c0-2.173,1.764-3.941,3.942-3.941
		c2.178,0,3.94,1.77,3.94,3.941C14.607,13.654,12.842,15.424,10.667,15.424z"/>
	<path fill="#5225B5" d="M3.351,7.005h3.398c0.185,0,0.335-0.152,0.335-0.336c0-0.184-0.15-0.335-0.335-0.335H3.351
		c-0.185,0-0.336,0.151-0.336,0.335C3.015,6.853,3.166,7.005,3.351,7.005z"/>
	<path fill="#5225B5" d="M12.385,11.412l-1.379,1.484V9.232c0-0.186-0.151-0.334-0.335-0.334c-0.185,0-0.335,0.149-0.335,0.334
		v3.663l-1.389-1.484c-0.128-0.137-0.343-0.146-0.477-0.02c-0.134,0.128-0.145,0.338-0.016,0.474l1.961,2.11
		c0.065,0.067,0.152,0.106,0.246,0.106s0.181-0.039,0.244-0.106l1.967-2.11c0.128-0.136,0.119-0.348-0.015-0.474
		C12.721,11.268,12.513,11.276,12.385,11.412z"/>
</g>
</svg>
