<?xml version="1.0" encoding="utf-8"?>
<!-- Generator: Adobe Illustrator 25.1.0, SVG Export Plug-In . SVG Version: 6.00 Build 0)  -->
<svg version="1.1" id="Layer_1" xmlns="http://www.w3.org/2000/svg" xmlns:xlink="http://www.w3.org/1999/xlink" x="0px" y="0px"
	 viewBox="0 0 271.1 63" style="enable-background:new 0 0 271.1 63;" xml:space="preserve">
<style type="text/css">
	.st0{fill-rule:evenodd;clip-rule:evenodd;fill:#506978;}
	.st1{fill:#893B96;}
	.st2{fill:#58595B;}
</style>
<g id="XMLID_15_">
	<g id="XMLID_26_">
		<g>
			<path class="st0" d="M98.2,19c-3.2-0.9-4.4,3.1-2.4,4.5c1,0.7,2.6,0.6,3.7,0l0-1.2c-0.6,0.2-0.9,0.5-1.8,0.4
				c-0.7,0-1.2-0.3-1.3-0.9l3.3,0C99.8,20.4,99.5,19.3,98.2,19z M96.6,20.8c0.2-1,1.5-1.1,1.8,0H96.6z"/>
		</g>
	</g>
	<g id="XMLID_23_">
		<g>
			<path class="st0" d="M123,16.5l0,2.3c-1.2-0.2-2.2,0-2.8,0.6c-0.6,0.5-0.9,1.6-0.7,2.6c0.2,0.9,0.8,1.5,1.8,1.7
				c0.8,0.2,2.5,0.1,3.3-0.1l0-7.5L123,16.5z M123,22.7c-1.2,0.1-1.9-0.1-1.9-1.3c0.1-1.1,0.7-1.4,1.9-1.2L123,22.7z"/>
		</g>
	</g>
	<g id="XMLID_20_">
		<g>
			<path class="st0" d="M118.9,19.4c-0.5-1-2.7-0.7-3.7-0.2l0,1.2c0.6-0.1,2.6-1.2,2.4,0.3c-1.5,0.1-3.1,0.5-2.7,2.3
				c0.4,1.4,2.7,0.9,4.1,0.8C119.1,23.2,119.1,19.8,118.9,19.4z M117.6,22.8c-0.6,0.1-1.5,0.2-1.3-0.5c0.1-0.4,0.8-0.5,1.3-0.5
				C117.7,22,117.7,22.6,117.6,22.8z"/>
		</g>
	</g>
	<g id="XMLID_19_">
		<g>
			<path class="st0" d="M100.7,19.1l-0.9,0l0,1.1l0.8,0c0.1,0.8-0.1,2.4,0.2,2.9c0.4,0.8,1.4,0.8,2.5,0.7l0-1.2c-0.7,0.2-1,0-1-0.7
				c0-0.5,0-1.4,0-1.8l1.7,0c0.1,0.8-0.1,2.3,0.1,3c0.4,0.8,1.5,0.7,2.5,0.6l0-1.1c-1.3,0.4-1-0.9-1-2.4l1.7,0l0,3.7l1.6,0
				c0-1.1,0-4.8,0-4.8s-2.6,0-3.2,0l0-1.4l-1.5,0l0,1.4l-1.8,0l0-1.4l-1.5,0L100.7,19.1z"/>
		</g>
	</g>
	<g id="XMLID_18_">
		<g>
			<path class="st0" d="M109.7,19.2l0,4.8l1.6,0l0-3.8c1.3-0.3,1.5,0,1.5,1.1c0,0.9,0,1.8,0,2.7l1.6,0c0-0.8,0-1.7,0-2.5
				c0-1.5,0.1-2.8-2.4-2.7C111.4,18.8,110.2,19,109.7,19.2z"/>
		</g>
	</g>
	<g id="XMLID_17_">
		<g>
			<path class="st0" d="M89.7,16.8l0,7.1l1.6,0l0-3.6c1.2-0.4,1.5-0.1,1.5,0.9c0,0.9,0,1.8,0,2.7l1.6,0c0-0.8,0.1-3.4-0.1-4
				c-0.4-1.3-2.2-1-3.1-0.8l0-2.7C91,16.5,89.9,16.6,89.7,16.8z"/>
		</g>
	</g>
	<g id="XMLID_16_">
		<g>
			<path class="st0" d="M89.1,23.5l0-1.6c-0.9,0.4-1.9,0.8-3.1,0.4c-2.6-0.7-2.1-5,1.7-4.4c0.7,0.1,0.9,0.4,1.4,0.5l0-1.5
				c-2.1-1.1-6.4-0.5-6.5,3.2c0,0.7,0.2,1.5,0.5,2.1C84.3,24.2,87.2,24.3,89.1,23.5z"/>
		</g>
	</g>
</g>
<g>
	<path class="st1" d="M89.6,34.4c-0.2,0.2-0.4,0.3-0.7,0.4c-0.3,0.1-0.6,0.2-0.9,0.3c0.1,0.1,0.2,0.2,0.3,0.3
		c0.1,0.1,0.2,0.3,0.3,0.5l2.1,3.6l1.4,0.3v0.8h-3.5v-0.8l-2.3-4.4h-1.8v4.1l1.5,0.3v0.8h-4.7v-0.8l1.4-0.3V30l-1.4-0.3v-0.8h5.7
		c0.5,0,1,0,1.4,0.1c0.4,0.1,0.7,0.3,1.1,0.5c0.4,0.3,0.7,0.6,0.9,1.1c0.2,0.5,0.3,0.9,0.3,1.4c0,0.5-0.1,0.9-0.3,1.3
		C90.3,33.7,90,34.1,89.6,34.4z M84.6,34.4h2.2c0.6,0,1.1-0.2,1.5-0.5c0.2-0.2,0.4-0.5,0.5-0.8c0.1-0.3,0.2-0.7,0.2-1
		c0-0.4-0.1-0.7-0.2-1c-0.1-0.3-0.3-0.5-0.5-0.7c-0.2-0.2-0.4-0.3-0.6-0.3c-0.2-0.1-0.5-0.1-0.9-0.1h-2.1V34.4z"/>
	<path class="st1" d="M92.8,38.7c0-0.9,0.4-1.5,1.2-2c0.8-0.5,2.1-0.9,3.9-1.1c0-0.6-0.1-1.1-0.2-1.4c-0.1-0.3-0.2-0.6-0.3-0.8
		c-0.1-0.3-0.3-0.5-0.6-0.6c-0.2-0.1-0.5-0.2-0.8-0.2c-0.3,0-0.5,0.1-0.8,0.2c-0.2,0.1-0.4,0.2-0.5,0.4c0.2,0.1,0.3,0.2,0.3,0.4
		c0.1,0.2,0.1,0.3,0.1,0.5c0,0.3-0.1,0.5-0.3,0.7c-0.2,0.2-0.4,0.3-0.7,0.3c-0.3,0-0.5-0.1-0.7-0.3c-0.2-0.2-0.3-0.4-0.3-0.8
		c0-0.5,0.2-0.8,0.5-1.1c0.3-0.3,0.7-0.6,1.2-0.7c0.5-0.2,1-0.2,1.5-0.2c0.5,0,0.9,0.1,1.3,0.2c0.4,0.1,0.7,0.3,1,0.6
		c0.7,0.7,1.1,1.9,1.1,3.6v2.3c0,0.5,0,0.9,0.1,1.1c0.1,0.2,0.2,0.3,0.5,0.3h0.7v0.6c-0.8,0.3-1.5,0.5-2,0.5c-0.3,0-0.6-0.1-0.7-0.4
		c-0.1-0.2-0.2-0.7-0.2-1.4H98c-0.3,0.6-0.8,1-1.3,1.3c-0.6,0.3-1.1,0.5-1.8,0.5c-0.7,0-1.2-0.2-1.6-0.6
		C93,39.8,92.8,39.3,92.8,38.7z M95.7,39.7c0.3,0,0.6-0.1,0.9-0.2c0.3-0.2,0.6-0.4,0.8-0.6c0.2-0.2,0.3-0.4,0.4-0.7
		c0.1-0.3,0.1-0.6,0.1-1c0-0.2,0-0.3,0-0.5c0-0.2,0-0.3,0-0.5c-0.8,0.2-1.5,0.4-2,0.6c-0.5,0.2-0.8,0.4-1,0.7
		c-0.2,0.3-0.3,0.6-0.3,1c0,0.5,0.1,0.8,0.3,1.1C95.1,39.6,95.4,39.7,95.7,39.7z"/>
	<path class="st1" d="M102.7,39.5v-6.6l-1.2-0.3v-0.7h2.5l0.4,1.6h0.1c0.3-0.6,0.8-1,1.3-1.3c0.6-0.3,1.1-0.5,1.8-0.5
		c0.9,0,1.6,0.3,2,0.9c0.2,0.3,0.4,0.7,0.5,1.3c0.1,0.5,0.1,1.3,0.1,2.2v3.5l1.2,0.3v0.7h-4.1v-0.7l1.1-0.3v-3.4
		c0-0.7,0-1.2-0.1-1.5c0-0.4-0.1-0.6-0.2-0.8c-0.1-0.3-0.3-0.5-0.5-0.6c-0.2-0.1-0.5-0.2-0.8-0.2c-0.6,0-1.1,0.2-1.5,0.6
		c-0.4,0.4-0.7,1-0.7,1.9v4.2l1.1,0.3v0.7h-4.1v-0.7L102.7,39.5z"/>
	<path class="st1" d="M113.4,32.9l-1.2-0.3v-0.7h3v7.7l1.2,0.3v0.7h-4.2v-0.7l1.2-0.3V32.9z M113.2,29.3c0-0.3,0.1-0.6,0.3-0.8
		c0.2-0.2,0.5-0.3,0.8-0.3c0.3,0,0.6,0.1,0.8,0.3c0.2,0.2,0.3,0.5,0.3,0.8c0,0.3-0.1,0.6-0.3,0.8c-0.2,0.2-0.5,0.3-0.8,0.3
		c-0.3,0-0.6-0.1-0.8-0.3C113.3,29.8,113.2,29.6,113.2,29.3z"/>
	<path class="st1" d="M128.5,39l3.1-10.1h3.9v0.8l-1.4,0.3v9.4l1.4,0.3v0.8h-4.3v-0.8l1.2-0.3V30l-3.2,10.5h-2L124,30v9.4l1.2,0.3
		v0.8h-3.8v-0.8l1.4-0.3V30l-1.4-0.3v-0.8h4L128.5,39L128.5,39z"/>
	<path class="st1" d="M144.1,36.3h-5.6c0,0.8,0.1,1.4,0.3,1.9c0.2,0.5,0.5,0.8,0.8,1c0.4,0.2,0.8,0.3,1.2,0.3c0.5,0,1-0.1,1.4-0.3
		s0.8-0.5,1.2-0.9l0.6,0.5c-0.4,0.5-0.9,1-1.4,1.3c-0.6,0.4-1.3,0.6-2.2,0.6c-0.8,0-1.4-0.2-2-0.5c-0.6-0.3-1-0.8-1.3-1.4
		c-0.2-0.3-0.3-0.7-0.4-1.1c-0.1-0.4-0.1-0.8-0.1-1.3c0-1.5,0.3-2.7,1-3.5c0.7-0.8,1.7-1.2,2.9-1.2c1.1,0,2,0.3,2.6,1
		c0.6,0.7,0.9,1.6,0.9,2.8c0,0.1,0,0.2,0,0.3C144.1,35.9,144.1,36.1,144.1,36.3z M140.5,32.6c-1.2,0-1.9,0.9-2,2.8h3.9V35
		c0-0.8-0.2-1.3-0.5-1.7C141.5,32.8,141.1,32.6,140.5,32.6z"/>
	<path class="st1" d="M152.9,32.9l-2.7,7.3c-0.3,0.8-0.6,1.5-0.9,2c-0.3,0.5-0.6,0.9-0.9,1.1c-0.3,0.2-0.7,0.3-1.2,0.3
		c-0.5,0-0.9-0.1-1.3-0.4c-0.4-0.3-0.5-0.6-0.5-1c0-0.3,0.1-0.6,0.3-0.8c0.2-0.2,0.4-0.3,0.7-0.3c0.3,0,0.5,0.1,0.6,0.2
		c0.2,0.1,0.2,0.3,0.2,0.6c0,0.1,0,0.3-0.1,0.4c-0.1,0.2-0.2,0.3-0.3,0.3c0,0.1,0.1,0.2,0.2,0.2c0.1,0,0.2,0.1,0.3,0.1
		c0.2,0,0.3,0,0.4-0.1c0.1-0.1,0.3-0.2,0.4-0.5c0.1-0.2,0.3-0.6,0.5-1.1l0.2-0.6l-3.3-7.8l-1-0.3v-0.7h3.8l0.1,0.7l-1.1,0.3l2.3,6.1
		h0.1l2-6.1l-0.9-0.3v-0.7h3.2v0.7L152.9,32.9z"/>
	<path class="st1" d="M162.5,32.9l-2.7,7.3c-0.3,0.8-0.6,1.5-0.9,2c-0.3,0.5-0.6,0.9-0.9,1.1c-0.3,0.2-0.7,0.3-1.2,0.3
		c-0.5,0-0.9-0.1-1.3-0.4c-0.4-0.3-0.5-0.6-0.5-1c0-0.3,0.1-0.6,0.3-0.8c0.2-0.2,0.4-0.3,0.7-0.3c0.3,0,0.5,0.1,0.6,0.2
		c0.2,0.1,0.2,0.3,0.2,0.6c0,0.1,0,0.3-0.1,0.4c-0.1,0.2-0.2,0.3-0.3,0.3c0,0.1,0.1,0.2,0.2,0.2c0.1,0,0.2,0.1,0.3,0.1
		c0.2,0,0.3,0,0.4-0.1c0.1-0.1,0.3-0.2,0.4-0.5c0.1-0.2,0.3-0.6,0.5-1.1l0.2-0.6l-3.3-7.8l-1-0.3v-0.7h3.8l0.1,0.7l-1.1,0.3l2.3,6.1
		h0.1l2-6.1l-0.9-0.3v-0.7h3.2v0.7L162.5,32.9z"/>
	<path class="st1" d="M164,38.7c0-0.9,0.4-1.5,1.2-2c0.8-0.5,2.1-0.9,3.9-1.1c0-0.6-0.1-1.1-0.2-1.4c-0.1-0.3-0.2-0.6-0.3-0.8
		c-0.1-0.3-0.3-0.5-0.6-0.6c-0.2-0.1-0.5-0.2-0.8-0.2c-0.3,0-0.5,0.1-0.8,0.2c-0.2,0.1-0.4,0.2-0.5,0.4c0.2,0.1,0.3,0.2,0.3,0.4
		c0.1,0.2,0.1,0.3,0.1,0.5c0,0.3-0.1,0.5-0.3,0.7c-0.2,0.2-0.4,0.3-0.7,0.3c-0.3,0-0.5-0.1-0.7-0.3c-0.2-0.2-0.3-0.4-0.3-0.8
		c0-0.5,0.2-0.8,0.5-1.1c0.3-0.3,0.7-0.6,1.2-0.7c0.5-0.2,1-0.2,1.5-0.2c0.5,0,0.9,0.1,1.3,0.2c0.4,0.1,0.7,0.3,1,0.6
		c0.7,0.7,1.1,1.9,1.1,3.6v2.3c0,0.5,0,0.9,0.1,1.1c0.1,0.2,0.2,0.3,0.5,0.3h0.7v0.6c-0.8,0.3-1.5,0.5-2,0.5c-0.3,0-0.6-0.1-0.7-0.4
		c-0.1-0.2-0.2-0.7-0.2-1.4h-0.1c-0.3,0.6-0.8,1-1.3,1.3c-0.6,0.3-1.1,0.5-1.8,0.5c-0.7,0-1.2-0.2-1.6-0.6
		C164.2,39.8,164,39.3,164,38.7z M167,39.7c0.3,0,0.6-0.1,0.9-0.2c0.3-0.2,0.6-0.4,0.8-0.6c0.2-0.2,0.3-0.4,0.4-0.7
		c0.1-0.3,0.1-0.6,0.1-1c0-0.2,0-0.3,0-0.5c0-0.2,0-0.3,0-0.5c-0.8,0.2-1.5,0.4-2,0.6c-0.5,0.2-0.8,0.4-1,0.7
		c-0.2,0.3-0.3,0.6-0.3,1c0,0.5,0.1,0.8,0.3,1.1C166.4,39.6,166.7,39.7,167,39.7z"/>
	<path class="st1" d="M174,39.5v-6.6l-1.2-0.3v-0.7h2.5l0.4,1.6h0.1c0.3-0.5,0.7-1,1.3-1.3c0.5-0.3,1.1-0.5,1.7-0.5
		c0.4,0,0.8,0.1,1.2,0.3c0.3,0.2,0.6,0.4,0.8,0.6c0.2,0.3,0.3,0.6,0.4,1.1c0.3-0.6,0.8-1.1,1.3-1.4c0.6-0.3,1.1-0.5,1.8-0.5
		c0.4,0,0.8,0.1,1.2,0.3c0.3,0.2,0.6,0.4,0.8,0.7c0.1,0.2,0.2,0.5,0.3,0.8c0.1,0.3,0.1,0.7,0.2,1.3c0,0.5,0,1.2,0,2v2.9l1.2,0.3v0.7
		h-4.1v-0.7l1.1-0.3v-3.4c0-0.7,0-1.2-0.1-1.6c0-0.3-0.1-0.6-0.2-0.8c-0.1-0.3-0.3-0.5-0.5-0.6c-0.2-0.1-0.5-0.2-0.7-0.2
		c-0.3,0-0.5,0-0.8,0.1c-0.2,0.1-0.5,0.2-0.7,0.4c-0.2,0.2-0.4,0.5-0.5,0.8c-0.1,0.3-0.2,0.7-0.2,1.1v4.2l1.1,0.3v0.7h-3.9v-0.7
		l1.1-0.3v-3.4c0-0.7,0-1.2-0.1-1.6c0-0.3-0.1-0.6-0.2-0.8c-0.1-0.3-0.3-0.5-0.5-0.6c-0.2-0.1-0.5-0.2-0.7-0.2c-0.3,0-0.5,0-0.8,0.1
		c-0.2,0.1-0.5,0.2-0.7,0.4c-0.2,0.2-0.4,0.5-0.5,0.8c-0.1,0.3-0.2,0.7-0.2,1.1v4.2l1.1,0.3v0.7h-4.1v-0.7L174,39.5z"/>
	<path class="st1" d="M189.9,39.5v-6.6l-1.2-0.3v-0.7h2.5l0.4,1.6h0.1c0.3-0.5,0.7-1,1.3-1.3c0.5-0.3,1.1-0.5,1.7-0.5
		c0.4,0,0.8,0.1,1.2,0.3c0.3,0.2,0.6,0.4,0.8,0.6c0.2,0.3,0.3,0.6,0.4,1.1c0.3-0.6,0.8-1.1,1.3-1.4c0.6-0.3,1.1-0.5,1.8-0.5
		c0.4,0,0.8,0.1,1.2,0.3c0.3,0.2,0.6,0.4,0.8,0.7c0.1,0.2,0.2,0.5,0.3,0.8c0.1,0.3,0.1,0.7,0.2,1.3c0,0.5,0,1.2,0,2v2.9l1.2,0.3v0.7
		h-4.1v-0.7l1.1-0.3v-3.4c0-0.7,0-1.2-0.1-1.6c0-0.3-0.1-0.6-0.2-0.8c-0.1-0.3-0.3-0.5-0.5-0.6c-0.2-0.1-0.5-0.2-0.7-0.2
		c-0.3,0-0.5,0-0.8,0.1s-0.5,0.2-0.7,0.4c-0.2,0.2-0.4,0.5-0.5,0.8c-0.1,0.3-0.2,0.7-0.2,1.1v4.2l1.1,0.3v0.7h-3.9v-0.7l1.1-0.3
		v-3.4c0-0.7,0-1.2-0.1-1.6c0-0.3-0.1-0.6-0.2-0.8c-0.1-0.3-0.3-0.5-0.5-0.6c-0.2-0.1-0.5-0.2-0.7-0.2c-0.3,0-0.5,0-0.8,0.1
		c-0.2,0.1-0.5,0.2-0.7,0.4c-0.2,0.2-0.4,0.5-0.5,0.8c-0.1,0.3-0.2,0.7-0.2,1.1v4.2l1.1,0.3v0.7h-4.1v-0.7L189.9,39.5z"/>
	<path class="st1" d="M204.5,38.7c0-0.9,0.4-1.5,1.2-2c0.8-0.5,2.1-0.9,3.9-1.1c0-0.6-0.1-1.1-0.2-1.4c-0.1-0.3-0.2-0.6-0.3-0.8
		c-0.1-0.3-0.3-0.5-0.6-0.6c-0.2-0.1-0.5-0.2-0.8-0.2c-0.3,0-0.5,0.1-0.8,0.2c-0.2,0.1-0.4,0.2-0.5,0.4c0.2,0.1,0.3,0.2,0.3,0.4
		c0.1,0.2,0.1,0.3,0.1,0.5c0,0.3-0.1,0.5-0.3,0.7c-0.2,0.2-0.4,0.3-0.7,0.3c-0.3,0-0.5-0.1-0.7-0.3c-0.2-0.2-0.3-0.4-0.3-0.8
		c0-0.5,0.2-0.8,0.5-1.1c0.3-0.3,0.7-0.6,1.2-0.7c0.5-0.2,1-0.2,1.5-0.2c0.5,0,0.9,0.1,1.3,0.2c0.4,0.1,0.7,0.3,1,0.6
		c0.7,0.7,1.1,1.9,1.1,3.6v2.3c0,0.5,0,0.9,0.1,1.1c0.1,0.2,0.2,0.3,0.5,0.3h0.7v0.6c-0.8,0.3-1.5,0.5-2,0.5c-0.3,0-0.6-0.1-0.7-0.4
		c-0.1-0.2-0.2-0.7-0.2-1.4h-0.1c-0.3,0.6-0.8,1-1.3,1.3c-0.6,0.3-1.1,0.5-1.8,0.5c-0.7,0-1.2-0.2-1.6-0.6
		C204.7,39.8,204.5,39.3,204.5,38.7z M207.5,39.7c0.3,0,0.6-0.1,0.9-0.2c0.3-0.2,0.6-0.4,0.8-0.6c0.2-0.2,0.3-0.4,0.4-0.7
		c0.1-0.3,0.1-0.6,0.1-1c0-0.2,0-0.3,0-0.5c0-0.2,0-0.3,0-0.5c-0.8,0.2-1.5,0.4-2,0.6c-0.5,0.2-0.8,0.4-1,0.7
		c-0.2,0.3-0.3,0.6-0.3,1c0,0.5,0.1,0.8,0.3,1.1C206.9,39.6,207.1,39.7,207.5,39.7z"/>
	<path class="st1" d="M214.4,32.9l-1.2-0.3v-0.7h3v7.7l1.2,0.3v0.7h-4.2v-0.7l1.2-0.3V32.9z M214.2,29.3c0-0.3,0.1-0.6,0.3-0.8
		c0.2-0.2,0.5-0.3,0.8-0.3c0.3,0,0.6,0.1,0.8,0.3c0.2,0.2,0.3,0.5,0.3,0.8c0,0.3-0.1,0.6-0.3,0.8c-0.2,0.2-0.5,0.3-0.8,0.3
		c-0.3,0-0.6-0.1-0.8-0.3C214.3,29.8,214.2,29.6,214.2,29.3z"/>
	<path class="st1" d="M232.7,30v9.4l1.4,0.3v0.8h-4.5v-0.8l1.4-0.3v-4.4h-5.3v4.4l1.4,0.3v0.8h-4.5v-0.8l1.4-0.3V30l-1.4-0.3v-0.8
		h4.5v0.8l-1.4,0.3v4h5.3v-4l-1.4-0.3v-0.8h4.5v0.8L232.7,30z"/>
	<path class="st1" d="M243.2,36.1c0,0.7-0.1,1.3-0.3,2c-0.2,0.6-0.5,1.1-0.9,1.6c-0.3,0.4-0.7,0.6-1.2,0.8c-0.5,0.2-1,0.3-1.7,0.3
		c-0.6,0-1.2-0.1-1.6-0.3c-0.5-0.2-0.9-0.4-1.2-0.8c-0.4-0.4-0.7-0.9-0.8-1.5c-0.2-0.6-0.3-1.2-0.3-1.9c0-0.7,0.1-1.4,0.3-2
		c0.2-0.6,0.5-1.2,0.9-1.6c0.4-0.4,0.8-0.6,1.2-0.8c0.5-0.2,1-0.3,1.6-0.3c0.6,0,1.2,0.1,1.7,0.3c0.5,0.2,0.9,0.4,1.2,0.8
		c0.4,0.4,0.7,0.9,0.9,1.5C243.1,34.8,243.2,35.5,243.2,36.1z M237.2,37.1c0,0.5,0.1,0.9,0.3,1.3c0.2,0.4,0.3,0.6,0.6,0.9
		c0.2,0.2,0.5,0.3,0.7,0.4c0.3,0.1,0.5,0.1,0.8,0c0.6-0.2,1-0.7,1.3-1.4c0.1-0.4,0.2-0.9,0.2-1.4c0-0.5,0-1,0-1.5
		c0-0.5-0.1-0.9-0.3-1.3c-0.2-0.4-0.3-0.6-0.6-0.8c-0.2-0.2-0.5-0.3-0.7-0.4c-0.3-0.1-0.6-0.1-0.9,0c-0.6,0.2-1,0.7-1.3,1.4
		C237.2,35.1,237.1,36,237.2,37.1z"/>
	<path class="st1" d="M247.8,39.9c0.6,0,1.1-0.1,1.4-0.3c0.4-0.2,0.6-0.6,0.6-1c0-0.3-0.1-0.6-0.4-0.8c-0.2-0.2-0.5-0.4-0.9-0.5
		c-0.4-0.1-0.7-0.2-1.1-0.4c-0.4-0.1-0.9-0.3-1.3-0.5c-0.4-0.2-0.7-0.5-1-0.8c-0.3-0.3-0.4-0.8-0.4-1.3c0-0.8,0.3-1.4,0.8-1.9
		c0.6-0.5,1.4-0.7,2.4-0.7c0.9,0,1.6,0.2,2.2,0.6c0.5,0.4,0.8,0.9,0.8,1.5c0,0.3-0.1,0.6-0.3,0.8c-0.2,0.2-0.4,0.3-0.7,0.3
		c-0.3,0-0.5-0.1-0.7-0.2c-0.2-0.2-0.3-0.3-0.3-0.6c0-0.2,0.1-0.4,0.2-0.6c0.1-0.2,0.2-0.3,0.4-0.4c-0.2-0.2-0.4-0.4-0.6-0.5
		c-0.3-0.1-0.6-0.2-1-0.2c-0.6,0-1.1,0.1-1.4,0.3c-0.3,0.2-0.4,0.6-0.4,1c0,0.3,0.1,0.6,0.2,0.8c0.1,0.2,0.4,0.3,0.6,0.5
		c0.3,0.1,0.6,0.3,1,0.4c0.4,0.1,0.8,0.2,1.1,0.4c0.4,0.1,0.7,0.3,1,0.5c0.3,0.2,0.6,0.4,0.7,0.7c0.2,0.3,0.3,0.7,0.3,1.1
		c0,0.6-0.2,1-0.5,1.4c-0.3,0.4-0.8,0.7-1.3,0.9c-0.6,0.2-1.2,0.3-1.9,0.3c-1,0-1.7-0.2-2.3-0.6c-0.6-0.4-0.9-0.9-0.9-1.6
		c0-0.4,0.1-0.7,0.3-0.9c0.2-0.2,0.4-0.3,0.7-0.3c0.3,0,0.5,0.1,0.7,0.2c0.2,0.2,0.3,0.4,0.3,0.6c0,0.2-0.1,0.4-0.2,0.6
		c-0.1,0.2-0.3,0.3-0.4,0.4c0.1,0.2,0.4,0.4,0.7,0.5C247,39.8,247.4,39.9,247.8,39.9z"/>
	<path class="st1" d="M252.2,32.7V32l1.6-0.2l0.2-2l1.5-0.2v2.2h2.1v0.9h-2.1v5.6c0,0.4,0,0.6,0,0.8c0,0.1,0,0.2,0.1,0.3
		c0,0.1,0.1,0.1,0.2,0.2c0.1,0,0.2,0,0.4,0h1.1v0.6c-0.6,0.2-1.1,0.3-1.5,0.4c-0.4,0.1-0.8,0.1-1,0.1c-0.5,0-0.8-0.2-0.9-0.6
		c0-0.1-0.1-0.3-0.1-0.5c0-0.2,0-0.5,0-0.9v-6H252.2z"/>
	<path class="st1" d="M265.8,36.3h-5.6c0,0.8,0.1,1.4,0.3,1.9c0.2,0.5,0.5,0.8,0.8,1c0.4,0.2,0.8,0.3,1.2,0.3c0.5,0,1-0.1,1.4-0.3
		c0.4-0.2,0.8-0.5,1.2-0.9l0.6,0.5c-0.4,0.5-0.9,1-1.4,1.3c-0.6,0.4-1.3,0.6-2.2,0.6c-0.8,0-1.4-0.2-2-0.5c-0.6-0.3-1-0.8-1.3-1.4
		c-0.2-0.3-0.3-0.7-0.4-1.1c-0.1-0.4-0.1-0.8-0.1-1.3c0-1.5,0.3-2.7,1-3.5c0.7-0.8,1.7-1.2,2.9-1.2c1.1,0,2,0.3,2.6,1
		c0.6,0.7,0.9,1.6,0.9,2.8c0,0.1,0,0.2,0,0.3C265.9,35.9,265.9,36.1,265.8,36.3z M262.3,32.6c-1.2,0-1.9,0.9-2,2.8h3.9V35
		c0-0.8-0.2-1.3-0.5-1.7C263.3,32.8,262.8,32.6,262.3,32.6z"/>
	<path class="st1" d="M268.2,39.5V29l-1.2-0.3v-0.7h3v11.6l1.2,0.3v0.7h-4.2v-0.7L268.2,39.5z"/>
</g>
<g>
	<path class="st2" d="M83.4,49.4h-2.1l0.1-0.7h5l-0.2,0.7h-2.1l-1.1,5.1h-0.9L83.4,49.4z"/>
	<path class="st2" d="M88.2,50.2c0.3-0.1,0.6-0.2,1.1-0.2l-0.2,0.8c-0.1,0-0.1,0-0.2,0c-0.9,0-1.5,0.5-1.7,1.5l-0.5,2.2h-0.8
		l0.9-4.4h0.8l-0.1,0.7C87.7,50.5,88,50.3,88.2,50.2z"/>
	<path class="st2" d="M94.6,50.1l-0.9,4.4h-0.8L93,54c-0.2,0.2-0.4,0.4-0.7,0.5c-0.3,0.1-0.6,0.2-0.9,0.2c-0.5,0-0.9-0.1-1.2-0.4
		c-0.3-0.3-0.4-0.6-0.4-1.1c0-0.2,0-0.3,0.1-0.5l0.5-2.5h0.8l-0.5,2.5c0,0.2,0,0.3,0,0.4c0,0.3,0.1,0.5,0.3,0.7
		c0.2,0.2,0.4,0.2,0.8,0.2c0.4,0,0.8-0.1,1.1-0.4c0.3-0.2,0.5-0.6,0.6-1.1l0.5-2.4H94.6z"/>
	<path class="st2" d="M95.5,54.4c-0.3-0.1-0.6-0.2-0.8-0.4l0.4-0.6c0.2,0.1,0.4,0.3,0.7,0.3s0.6,0.1,0.9,0.1c0.4,0,0.7-0.1,0.9-0.2
		c0.2-0.1,0.3-0.3,0.3-0.5c0-0.2-0.1-0.3-0.2-0.4c-0.2-0.1-0.4-0.1-0.8-0.2c-0.3-0.1-0.6-0.1-0.8-0.2c-0.2-0.1-0.4-0.2-0.5-0.3
		c-0.1-0.2-0.2-0.4-0.2-0.6c0-0.3,0.1-0.5,0.3-0.8c0.2-0.2,0.4-0.4,0.7-0.5c0.3-0.1,0.7-0.2,1.1-0.2c0.3,0,0.6,0,0.9,0.1
		c0.3,0.1,0.5,0.2,0.7,0.3l-0.3,0.6c-0.2-0.1-0.4-0.2-0.6-0.3c-0.2-0.1-0.5-0.1-0.7-0.1c-0.4,0-0.7,0.1-0.9,0.2
		c-0.2,0.1-0.3,0.3-0.3,0.5c0,0.2,0.1,0.3,0.2,0.4c0.2,0.1,0.4,0.1,0.8,0.2c0.3,0.1,0.6,0.1,0.8,0.2c0.2,0.1,0.4,0.2,0.5,0.3
		c0.1,0.2,0.2,0.4,0.2,0.6c0,0.5-0.2,0.8-0.6,1.1c-0.4,0.3-0.9,0.4-1.5,0.4C96.2,54.6,95.9,54.5,95.5,54.4z"/>
	<path class="st2" d="M100.6,53.1c0,0.1,0,0.2,0,0.2c0,0.2,0.1,0.3,0.2,0.4c0.1,0.1,0.3,0.1,0.5,0.1c0.2,0,0.5-0.1,0.7-0.2l0.2,0.6
		c-0.3,0.2-0.6,0.3-1.1,0.3c-0.4,0-0.7-0.1-0.9-0.3c-0.2-0.2-0.3-0.5-0.3-0.8c0-0.1,0-0.2,0-0.3l0.5-2.4h-0.8l0.1-0.7h0.8l0.2-1h0.8
		l-0.2,1h1.3l-0.1,0.7h-1.3L100.6,53.1z"/>
	<path class="st2" d="M103.5,52.6L103.5,52.6c0,0.5,0.1,0.8,0.4,1c0.2,0.2,0.6,0.3,1.1,0.3c0.3,0,0.5,0,0.8-0.1
		c0.2-0.1,0.5-0.2,0.6-0.4l0.4,0.6c-0.2,0.2-0.5,0.4-0.8,0.5c-0.3,0.1-0.7,0.2-1,0.2c-0.4,0-0.8-0.1-1.2-0.2
		c-0.3-0.2-0.6-0.4-0.8-0.7s-0.3-0.6-0.3-1c0-0.5,0.1-0.9,0.3-1.3c0.2-0.4,0.5-0.7,0.9-0.9c0.4-0.2,0.8-0.3,1.3-0.3
		c0.6,0,1.1,0.2,1.5,0.5c0.4,0.3,0.6,0.8,0.6,1.4c0,0.2,0,0.4-0.1,0.6H103.5z M104.2,51.1c-0.3,0.2-0.5,0.5-0.6,0.9h2.9
		c0-0.4-0.1-0.7-0.3-0.9c-0.2-0.2-0.6-0.3-1-0.3C104.9,50.7,104.5,50.8,104.2,51.1z"/>
	<path class="st2" d="M113.5,48.3l-1.3,6.2h-0.8l0.1-0.5c-0.2,0.2-0.4,0.3-0.7,0.4c-0.3,0.1-0.6,0.2-0.9,0.2c-0.4,0-0.7-0.1-1-0.2
		c-0.3-0.2-0.5-0.4-0.7-0.7c-0.2-0.3-0.3-0.6-0.3-1c0-0.5,0.1-1,0.3-1.4c0.2-0.4,0.5-0.7,0.9-0.9c0.4-0.2,0.8-0.3,1.3-0.3
		c0.4,0,0.7,0.1,1,0.2c0.3,0.1,0.5,0.3,0.6,0.6l0.5-2.5H113.5z M111,53.6c0.3-0.2,0.5-0.4,0.6-0.7c0.2-0.3,0.2-0.6,0.2-1
		c0-0.4-0.1-0.7-0.4-0.9c-0.2-0.2-0.6-0.3-1-0.3c-0.3,0-0.6,0.1-0.9,0.2c-0.3,0.2-0.5,0.4-0.6,0.7c-0.2,0.3-0.2,0.6-0.2,1
		c0,0.4,0.1,0.7,0.4,0.9c0.2,0.2,0.6,0.3,1,0.3C110.5,53.9,110.8,53.8,111,53.6z"/>
	<path class="st2" d="M116.7,54.4c-0.4-0.1-0.7-0.3-1-0.5l0.4-0.7c0.2,0.2,0.5,0.4,0.9,0.5c0.3,0.1,0.7,0.2,1.1,0.2
		c0.5,0,0.9-0.1,1.2-0.3c0.3-0.2,0.4-0.4,0.4-0.7c0-0.2-0.1-0.3-0.2-0.4c-0.1-0.1-0.3-0.2-0.4-0.3c-0.2-0.1-0.4-0.1-0.7-0.2
		c-0.4-0.1-0.7-0.2-0.9-0.3c-0.2-0.1-0.4-0.3-0.6-0.4c-0.2-0.2-0.3-0.5-0.3-0.8c0-0.4,0.1-0.7,0.3-1c0.2-0.3,0.5-0.5,0.9-0.6
		c0.4-0.1,0.8-0.2,1.3-0.2c0.4,0,0.7,0,1.1,0.1c0.3,0.1,0.6,0.2,0.9,0.4l-0.3,0.7c-0.2-0.2-0.5-0.3-0.8-0.4
		c-0.3-0.1-0.6-0.1-0.9-0.1c-0.5,0-0.9,0.1-1.2,0.3c-0.3,0.2-0.4,0.4-0.4,0.8c0,0.2,0.1,0.3,0.2,0.4c0.1,0.1,0.3,0.2,0.4,0.3
		c0.2,0.1,0.4,0.1,0.7,0.2c0.4,0.1,0.7,0.2,0.9,0.3c0.2,0.1,0.4,0.2,0.6,0.4c0.2,0.2,0.2,0.4,0.2,0.7c0,0.4-0.1,0.7-0.3,1
		c-0.2,0.3-0.5,0.5-0.9,0.6c-0.4,0.1-0.8,0.2-1.3,0.2C117.5,54.6,117.1,54.5,116.7,54.4z"/>
	<path class="st2" d="M122.2,50.1h0.8l-0.9,4.4h-0.8L122.2,50.1z M122.4,49.1c-0.1-0.1-0.1-0.2-0.1-0.3c0-0.2,0.1-0.3,0.2-0.4
		c0.1-0.1,0.3-0.2,0.4-0.2c0.1,0,0.3,0,0.4,0.1c0.1,0.1,0.2,0.2,0.2,0.3c0,0.2-0.1,0.3-0.2,0.4c-0.1,0.1-0.3,0.2-0.4,0.2
		C122.7,49.2,122.5,49.2,122.4,49.1z"/>
	<path class="st2" d="M128,50.4c0.3,0.3,0.4,0.6,0.4,1.1c0,0.2,0,0.3-0.1,0.5l-0.5,2.5h-0.8l0.5-2.5c0-0.2,0-0.3,0-0.4
		c0-0.3-0.1-0.5-0.3-0.7c-0.2-0.2-0.4-0.2-0.8-0.2c-0.4,0-0.8,0.1-1.1,0.4c-0.3,0.2-0.5,0.6-0.6,1.1l-0.5,2.3h-0.8l0.9-4.4h0.8
		l-0.1,0.6c0.4-0.4,1-0.6,1.7-0.6C127.4,50.1,127.8,50.2,128,50.4z"/>
	<path class="st2" d="M130.4,54.4c-0.3-0.2-0.6-0.4-0.8-0.7c-0.2-0.3-0.3-0.6-0.3-1c0-0.5,0.1-0.9,0.3-1.3c0.2-0.4,0.5-0.7,1-0.9
		c0.4-0.2,0.9-0.3,1.4-0.3c0.9,0,1.5,0.3,1.9,1l-0.7,0.4c-0.2-0.4-0.7-0.6-1.2-0.6c-0.3,0-0.6,0.1-0.9,0.2c-0.3,0.2-0.5,0.4-0.6,0.7
		c-0.2,0.3-0.2,0.6-0.2,1c0,0.4,0.1,0.7,0.4,0.9c0.2,0.2,0.6,0.3,1,0.3c0.3,0,0.5-0.1,0.8-0.2c0.2-0.1,0.4-0.3,0.6-0.5l0.6,0.4
		c-0.2,0.3-0.5,0.5-0.9,0.7c-0.4,0.2-0.7,0.2-1.1,0.2C131.1,54.6,130.8,54.5,130.4,54.4z"/>
	<path class="st2" d="M135,52.6L135,52.6c0,0.5,0.1,0.8,0.4,1c0.2,0.2,0.6,0.3,1.1,0.3c0.3,0,0.5,0,0.8-0.1c0.2-0.1,0.5-0.2,0.6-0.4
		l0.4,0.6c-0.2,0.2-0.5,0.4-0.8,0.5c-0.3,0.1-0.7,0.2-1,0.2c-0.4,0-0.8-0.1-1.2-0.2c-0.3-0.2-0.6-0.4-0.8-0.7s-0.3-0.6-0.3-1
		c0-0.5,0.1-0.9,0.3-1.3c0.2-0.4,0.5-0.7,0.9-0.9c0.4-0.2,0.8-0.3,1.3-0.3c0.6,0,1.1,0.2,1.5,0.5c0.4,0.3,0.6,0.8,0.6,1.4
		c0,0.2,0,0.4-0.1,0.6H135z M135.7,51.1c-0.3,0.2-0.5,0.5-0.6,0.9h2.9c0-0.4-0.1-0.7-0.3-0.9c-0.2-0.2-0.6-0.3-1-0.3
		C136.3,50.7,136,50.8,135.7,51.1z"/>
	<path class="st2" d="M144.3,48.7l-1.2,5.9h-0.9l1.1-5.1H142l0.1-0.7H144.3z"/>
	<path class="st2" d="M148.6,48.9c0.3,0.2,0.6,0.5,0.8,0.8c0.2,0.4,0.3,0.8,0.3,1.3c0,0.6-0.1,1.2-0.4,1.7c-0.2,0.6-0.6,1-1.1,1.4
		c-0.5,0.4-1.2,0.5-1.9,0.5c-0.3,0-0.6,0-0.9-0.1c-0.3-0.1-0.5-0.1-0.7-0.3l0.4-0.7c0.3,0.2,0.7,0.3,1.2,0.3c0.5,0,0.9-0.1,1.3-0.3
		c0.3-0.2,0.6-0.5,0.8-0.8c0.2-0.3,0.3-0.7,0.4-1.1c-0.4,0.4-0.9,0.6-1.7,0.6c-0.4,0-0.7-0.1-1-0.2c-0.3-0.1-0.5-0.3-0.7-0.6
		c-0.2-0.3-0.3-0.6-0.3-0.9c0-0.4,0.1-0.7,0.3-1c0.2-0.3,0.5-0.5,0.8-0.7c0.3-0.2,0.7-0.2,1.1-0.2C147.9,48.6,148.3,48.7,148.6,48.9
		z M148.4,51.2c0.3-0.2,0.4-0.5,0.4-0.8c0-0.2-0.1-0.4-0.2-0.5c-0.1-0.2-0.3-0.3-0.5-0.4c-0.2-0.1-0.4-0.2-0.7-0.2
		c-0.4,0-0.7,0.1-1,0.3c-0.3,0.2-0.4,0.5-0.4,0.9c0,0.3,0.1,0.6,0.4,0.8s0.5,0.3,0.9,0.3C147.8,51.6,148.1,51.4,148.4,51.2z"/>
	<path class="st2" d="M155.5,48.7l-0.1,0.6l-3.5,5.3H151l3.4-5.1h-2.7l-0.2,1h-0.8l0.4-1.8H155.5z"/>
	<path class="st2" d="M157.6,49.6c-0.4,0.2-0.6,0.5-0.8,0.8c-0.2,0.3-0.3,0.7-0.4,1.1c0.4-0.4,0.9-0.7,1.7-0.7c0.4,0,0.7,0.1,1,0.2
		c0.3,0.1,0.5,0.3,0.7,0.6c0.2,0.3,0.3,0.6,0.3,0.9c0,0.4-0.1,0.7-0.3,1c-0.2,0.3-0.5,0.5-0.8,0.7c-0.3,0.2-0.7,0.2-1.1,0.2
		c-0.5,0-0.9-0.1-1.2-0.3c-0.3-0.2-0.6-0.5-0.8-0.8c-0.2-0.4-0.3-0.8-0.3-1.3c0-0.6,0.1-1.2,0.4-1.7c0.2-0.6,0.6-1,1.1-1.4
		c0.5-0.4,1.2-0.5,1.9-0.5c0.3,0,0.6,0,0.8,0.1c0.3,0.1,0.5,0.1,0.7,0.3l-0.4,0.7c-0.3-0.2-0.7-0.3-1.2-0.3
		C158.4,49.3,158,49.4,157.6,49.6z M156.9,52c-0.3,0.2-0.4,0.5-0.4,0.8c0,0.2,0.1,0.4,0.2,0.5c0.1,0.2,0.3,0.3,0.5,0.4
		c0.2,0.1,0.4,0.2,0.7,0.2c0.4,0,0.7-0.1,1-0.3c0.3-0.2,0.4-0.5,0.4-0.9c0-0.3-0.1-0.6-0.4-0.8c-0.2-0.2-0.5-0.3-0.9-0.3
		C157.5,51.7,157.1,51.8,156.9,52z"/>
</g>
<g>
	<path class="st1" d="M73.8,18.8l-6.5-6.5c-2,1.2-3.9,2.6-5.7,4.1c-0.1-0.7-0.3-1.3-0.4-1.7c1.6-1.3,3.2-2.5,4.9-3.5l-6-6H52
		c-0.1-0.4-0.3-0.7-0.4-1l-0.3-0.7l-0.7,0.3c-0.1,0-1.1,0.5-2.3,1.4h-1.3C46.4,3.9,46,3.1,46,3l-0.4-0.7l-0.7,0.3
		c-1.5,0.7-2.8,1.6-3.9,2.5h-0.6c-0.8-2.6-2.5-4.2-2.7-4.3l-0.5-0.5l-0.5,0.5c-1.4,1.3-2.4,2.9-3,4.3h-0.5c-1.1-0.9-2.4-1.7-3.9-2.5
		l-0.7-0.3L28.3,3c0,0.1-0.5,0.8-1,2.1h-1.2c-1.4-1.2-2.7-1.8-2.8-1.8l-0.7-0.3l-0.3,0.7c-0.2,0.5-0.4,1-0.6,1.4h-7.6l-6.1,6.1
		c1.6,1,3.2,2.1,4.7,3.4c-0.1,0.4-0.2,1-0.4,1.7C10.8,14.9,9,13.6,7,12.4l-6.5,6.5c0,0,7.9,5,11.4,8c-0.6,0.1-1.3,0.2-2,0.4
		c-2-1.7-4.2-3.3-6.6-4.8l4.3,5.4c-1.5,0.5-3.2,1.2-4.9,2.2l-0.7,0.4l0.4,0.7c0.1,0.1,1.9,3.1,5.5,5.9c2.5,1.9,6.1,4,10.9,4.9
		l13.2,16.3c-1.1-2.9-3-6.6-5.3-10.6c-1-1.7-2.1-3.5-3.3-5.4c0.4,0,0.9,0,1.3-0.1c0.1,0,0.3,0,0.4,0c0,0,0.1,0,0.1,0
		c1,1.5,2,3.1,2.9,4.7c3.6,6.3,6.7,13.1,6.7,13.1c-0.5-3.7-1.8-8.7-4.5-16.3c0.2,0,0.4,0.1,0.7,0.1l0,0c0.1,0,0.4,0,1,0.1
		c2.6,7.5,3.8,14.3,4.3,18V43.4c0.1,0,0.1,0,0.2-0.1c0.4,0.2,0.9,0.4,1.3,0.5v18.1c0.5-3.6,1.7-10.3,4.2-17.7c0.4,0,0.7-0.1,0.8-0.1
		l0,0c0.3-0.1,0.6-0.1,0.9-0.2c-2.7,7.6-3.4,12.4-3.9,16.1c0,0,2.6-6.7,6.2-13.1c0.9-1.5,1.8-3,2.7-4.5c0.2-0.1,0.3-0.1,0.4-0.2
		c0.4,0,0.8,0,1.1,0c0.1,0,0.2,0,0.4,0c-1.3,1.9-2.4,3.7-3.3,5.4c-2.3,4-4.1,7.6-5.3,10.5l13.3-16.4c4.3-0.9,7.6-2.9,9.9-4.7
		c3.7-2.9,5.5-5.8,5.5-5.9l0.4-0.7L70.7,30c-1.5-0.8-3-1.5-4.3-2l4.4-5.6c-2.4,1.5-4.6,3.2-6.7,4.9c-0.7-0.2-1.3-0.3-1.9-0.4
		C65.8,24,73.8,18.8,73.8,18.8z M55.9,22.2c0.1-0.8,0.1-1.6,0.1-2.5c0-0.5,0-1,0-1.5c0.9-0.8,2.1-1.9,3.9-3c0,0.2,0.1,0.3,0.1,0.5
		c0.1,0.5,0.2,1.1,0.3,1.8c0.3,2.2,0.5,5.4,0,9.1c-2.1-0.2-3.7,0-4.9,0.3C55.6,25.7,55.8,24,55.9,22.2z M50.4,5.5
		c0.6,1.5,0.8,3,0.8,4.4c-0.8,0.4-1.7,0.8-2.6,1.4c-0.1-0.8-0.3-1.6-0.5-2.5c-0.1-0.4-0.2-0.8-0.3-1.2C48.7,6.6,49.8,5.9,50.4,5.5z
		 M48.1,13.5c0.2-0.2,0.5-0.3,0.7-0.5c0.8-0.5,1.6-1,2.4-1.4c0.3-0.1,0.6-0.3,0.8-0.4c0.3-0.1,0.6-0.2,0.8-0.3
		c0.3-0.1,0.5-0.2,0.7-0.3c0.6,2.1,0.9,4.5,1,7c0,0.4,0,0.7,0,1.1c0,0.4,0,0.8,0,1.2c0,0.5,0,1.1-0.1,1.6c-0.1,1-0.1,1.9-0.2,2.8
		C54.1,24.9,54,25.5,54,26c-0.1-0.3-0.3-0.6-0.4-0.8c-0.3-0.6-0.6-1.1-0.8-1.5c0,0,0,0,0,0c-0.2-0.3-0.3-0.6-0.5-0.8
		c-0.2-0.3-0.4-0.6-0.5-0.8c-0.1-0.1-0.2-0.2-0.2-0.2l-0.3-0.5l-0.5,0.2c-1.4,0.5-2.7,1.1-3.9,1.7c-0.4,0.2-0.8,0.4-1.2,0.7
		c-0.4,0.3-0.9,0.5-1.3,0.8c-0.9,0.6-1.8,1.2-2.5,1.8c-0.4,0.3-0.7,0.6-1.1,0.9c-0.4,0.4-0.8,0.7-1.1,1.1c-0.4,0.4-0.8,0.9-1.2,1.3
		c0.4-2.9,1.2-5.6,2.5-8.1c0.2-0.4,0.4-0.8,0.6-1.1c0.2-0.3,0.4-0.7,0.6-1c0.9-1.3,1.9-2.5,3-3.6c0.2-0.2,0.5-0.5,0.7-0.7
		c0.1-0.1,0.2-0.1,0.2-0.2c0.2-0.1,0.3-0.3,0.5-0.4c0.3-0.3,0.6-0.5,0.9-0.7C47.6,13.8,47.9,13.7,48.1,13.5z M40.1,8
		c0.2-0.2,0.5-0.5,0.8-0.7c0.9-0.8,1.8-1.5,2.8-2.1c0.4-0.3,0.8-0.5,1.2-0.7c0.1,0.2,0.2,0.4,0.3,0.7c0.2,0.6,0.5,1.3,0.8,2.2
		c0.1,0.3,0.2,0.6,0.3,1c0.1,0.4,0.2,0.7,0.3,1.1c0.2,0.9,0.4,1.8,0.5,2.8c-0.3,0.2-0.6,0.4-0.9,0.7c-0.2,0.2-0.5,0.4-0.7,0.6
		c-0.2,0.2-0.4,0.3-0.6,0.5c0,0-0.1,0.1-0.1,0.1c-1.2,1.1-2.3,2.3-3.3,3.6c-0.1-0.5-0.3-1-0.5-1.5c-0.4-1.1-0.9-2.4-1.6-3.7
		c-0.1-0.3-0.3-0.5-0.5-0.8c-0.2-0.3-0.3-0.5-0.5-0.8c-0.1-0.2-0.3-0.4-0.4-0.6c0.4-0.5,0.8-1,1.2-1.4C39.6,8.5,39.8,8.2,40.1,8z
		 M35.4,5.2c0.5-0.9,1.1-1.8,1.8-2.7c0.5,0.6,1.1,1.5,1.6,2.7c0.2,0.5,0.3,1,0.4,1.5c-0.8,0.7-1.5,1.5-2.1,2.3
		c-0.7-0.8-1.4-1.7-2.3-2.5C35,6.1,35.2,5.6,35.4,5.2z M27.5,9.8c0.1-0.4,0.2-0.9,0.3-1.3c0.1-0.4,0.2-0.7,0.3-1
		c0.3-0.9,0.6-1.7,0.9-2.3c0.1-0.3,0.2-0.5,0.3-0.7c0.4,0.2,0.8,0.5,1.2,0.7C31.4,5.7,32.3,6.3,33,7c0.2,0.2,0.4,0.4,0.6,0.6
		c0.2,0.2,0.4,0.4,0.6,0.6c0.7,0.7,1.3,1.4,1.9,2.1c0.2,0.2,0.3,0.4,0.5,0.6c0.2,0.2,0.3,0.4,0.5,0.7c0.2,0.3,0.4,0.6,0.6,1
		c0.2,0.3,0.3,0.5,0.5,0.8c0.2,0.3,0.3,0.6,0.4,0.9c0.4,0.8,0.7,1.6,1,2.4c0.3,1,0.6,1.9,0.8,2.8c-0.5,0.8-0.9,1.6-1.3,2.4
		c-0.9,1.8-1.5,3.7-1.9,5.7c-0.4-2-1.1-3.9-1.9-5.7c-0.4-0.8-0.8-1.5-1.3-2.3c-0.2-0.3-0.4-0.6-0.6-0.9c-0.2-0.3-0.4-0.5-0.6-0.8
		c-1-1.4-2.2-2.7-3.6-3.8c0,0-0.1,0-0.1-0.1c-0.2-0.2-0.5-0.4-0.7-0.6c-0.2-0.2-0.5-0.4-0.7-0.6c-0.2-0.1-0.4-0.3-0.6-0.4
		C27.2,11.5,27.3,10.6,27.5,9.8z M23.4,5.2C23.4,5.2,23.4,5.1,23.4,5.2c0.1,0,0.1,0,0.1,0c0.8,0.5,2,1.3,2.9,2.6
		c-0.1,0.4-0.2,0.7-0.3,1.1c-0.2,0.9-0.4,1.7-0.5,2.6c-1.1-0.7-2.1-1.2-3-1.6C22.6,8.4,22.8,6.8,23.4,5.2z M19.5,17.4
		c0.1-2.4,0.3-4.8,1-6.8c0.2,0.1,0.4,0.2,0.7,0.3c0.2,0.1,0.5,0.2,0.8,0.3c0.3,0.1,0.5,0.2,0.8,0.4c0.8,0.4,1.7,0.9,2.7,1.5
		c0.2,0.2,0.5,0.3,0.7,0.5c0.2,0.2,0.5,0.4,0.7,0.5c0.2,0.1,0.4,0.3,0.6,0.4c0.2,0.2,0.5,0.4,0.7,0.6c0,0,0,0,0,0
		c0.2,0.2,0.5,0.4,0.7,0.7c1.3,1.2,2.4,2.5,3.4,3.9c0.2,0.3,0.4,0.6,0.6,1c0.2,0.4,0.4,0.7,0.6,1.1c1.2,2.4,2.1,5,2.4,7.9
		c-0.4-0.4-0.7-0.8-1.2-1.3c-0.4-0.4-0.7-0.7-1.2-1.1c-0.3-0.3-0.7-0.6-1.1-0.9c-0.8-0.6-1.6-1.3-2.6-1.9c-0.4-0.3-0.8-0.5-1.3-0.8
		c-0.4-0.2-0.8-0.5-1.2-0.7c-1.2-0.7-2.6-1.3-4.1-1.8l-0.5-0.2l-0.3,0.5c0,0-0.1,0.1-0.1,0.2c-0.1,0.2-0.3,0.4-0.5,0.8
		c-0.1,0.2-0.3,0.5-0.5,0.8c0,0,0,0,0,0c-0.3,0.4-0.5,0.9-0.8,1.5c-0.2,0.3-0.3,0.7-0.5,1c-0.1-0.6-0.1-1.3-0.2-1.9
		c-0.1-0.9-0.1-1.8-0.2-2.7c0-0.5,0-0.9-0.1-1.4c0-0.4,0-0.8,0-1.2C19.5,18.1,19.5,17.8,19.5,17.4z M13.9,17.5
		c0.1-0.7,0.2-1.3,0.3-1.8c0-0.1,0.1-0.3,0.1-0.4c1.6,1,2.8,2,3.7,2.8c0,0.4,0,0.8,0,1.3c0,0.8,0,1.6,0.1,2.4c0.1,2,0.3,3.9,0.5,5.4
		c-1.1-0.3-2.7-0.5-4.7-0.4C13.4,23,13.6,19.7,13.9,17.5z M22.4,40.7c-1.7,0-3.4-0.3-5-0.7c-3-0.8-5.8-2.2-8.4-4.2
		C6.6,34,5,32,4.3,31c1.6-0.8,3.1-1.4,4.5-1.8c1-0.3,1.9-0.5,2.7-0.6c0.4-0.1,0.8-0.1,1.1-0.2c0.3,0,0.5-0.1,0.8-0.1
		c0,0,0.1,0,0.1,0c0.2,0,0.4,0,0.6,0c0.4,0,0.7,0,1.1,0c1.7,0.1,2.9,0.3,3.6,0.6c0,0,0,0,0,0c0,0,0,0,0,0c-0.1,0.3-0.1,0.5-0.2,0.8
		c-0.1,0.3-0.1,0.5-0.2,0.8c-0.2,0.9-0.2,1.7-0.2,2.6c0,1,0.2,2,0.5,3c0,0.1,0.1,0.2,0.1,0.3c0.7,1.7,1.8,3.1,3.4,4.2
		c0.1,0,0.1,0.1,0.2,0.1C22.5,40.7,22.5,40.7,22.4,40.7z M35,34.5c0,0-0.1,0.1-0.1,0.1c-0.1,0.2-0.2,0.4-0.3,0.5
		c-0.2,0.3-0.3,0.6-0.4,0.9c-0.3,0.8-0.4,1.2-0.4,1.3l0,0c-0.4,1.9-0.1,3.5,1,4.7c0,0,0,0,0.1,0.1c-1.4,0.2-2.8,0.2-3.4,0.1
		c-0.1,0-0.2,0-0.2,0c-0.5-0.1-1-0.2-1.5-0.3c-0.5-0.1-1-0.2-1.5-0.4c-0.5-0.1-0.9-0.3-1.4-0.4c-0.5-0.2-1-0.4-1.4-0.6
		c-0.8-0.3-1.4-0.7-2-1.1c-1.5-1-2.5-2.2-3.1-3.7c-0.1-0.2-0.1-0.4-0.2-0.6c-0.4-1.1-0.4-2.3-0.3-3.5c0-0.3,0.1-0.6,0.1-0.9
		c0-0.2,0.1-0.4,0.1-0.6c0-0.2,0.1-0.5,0.2-0.7c0,0,0-0.1,0-0.1c0-0.2,0.1-0.3,0.1-0.5c0-0.1,0-0.1,0.1-0.2c0,0,0-0.1,0-0.1
		c0.1-0.2,0.1-0.4,0.2-0.6c0.2-0.7,0.5-1.3,0.8-1.9c0.2-0.4,0.4-0.7,0.5-1.1c0.1-0.2,0.2-0.3,0.3-0.5c0.1-0.1,0.1-0.2,0.2-0.4
		c0.2-0.3,0.3-0.6,0.5-0.8c0.1-0.2,0.2-0.4,0.3-0.5c2.1,0.8,3.9,1.8,5.4,2.7c0.5,0.3,0.9,0.6,1.4,0.9c0.5,0.4,1,0.7,1.5,1.1
		c0.7,0.6,1.3,1.1,1.9,1.7c0.4,0.4,0.8,0.9,1.2,1.3c0.4,0.5,0.8,0.9,1.1,1.3c0.1,0.1,0.2,0.2,0.2,0.3c0.1,0.1,0.1,0.2,0.2,0.3
		c0,0,0,0,0,0c0,0,0,0,0,0c0,0-0.1,0.1-0.1,0.1c-0.1,0.2-0.2,0.4-0.3,0.5c-0.1,0.1-0.1,0.2-0.2,0.3c-0.1,0.1-0.1,0.2-0.2,0.4
		c-0.1,0.1-0.2,0.3-0.2,0.4C35.1,34.4,35.1,34.5,35,34.5z M50.8,39.6c-0.5,0.4-1.1,0.7-1.8,1.1c-0.5,0.2-0.9,0.4-1.5,0.6
		c-0.5,0.2-1,0.3-1.5,0.5c-0.5,0.1-1,0.3-1.6,0.4c-0.6,0.1-1.2,0.2-1.8,0.3c0,0,0,0,0,0c-0.8,0.1-2.6,0.1-4.2-0.2
		c-0.2,0-0.4-0.1-0.6-0.2c-0.1,0-0.3-0.1-0.4-0.1c-0.3-0.1-0.6-0.3-0.8-0.4c-0.1-0.1-0.2-0.1-0.3-0.2c-0.1-0.1-0.3-0.2-0.4-0.4
		c-0.7-0.7-0.9-1.8-0.7-3.1c0-0.1,0-0.2,0-0.2c0-0.1,0.1-0.4,0.3-0.8c0-0.1,0.1-0.1,0.1-0.2c0.1-0.2,0.2-0.4,0.3-0.7
		c0.1-0.1,0.1-0.3,0.2-0.4c0.1-0.2,0.2-0.4,0.3-0.7c0,0,0,0,0,0c0.1-0.1,0.1-0.2,0.2-0.3c0.1-0.1,0.2-0.3,0.2-0.4c0,0,0,0,0,0
		c0-0.1,0.1-0.2,0.1-0.2c0.1-0.1,0.1-0.2,0.2-0.3c0.1-0.1,0.2-0.3,0.3-0.4c0.1-0.1,0.1-0.2,0.2-0.2c0.1-0.1,0.2-0.3,0.3-0.4
		c0,0,0,0,0,0c0.1-0.1,0.1-0.2,0.2-0.3c0,0,0.1-0.1,0.1-0.1c0.4-0.5,0.8-1,1.3-1.5c0.4-0.4,0.8-0.8,1.2-1.2c0.5-0.5,1.1-1.1,1.8-1.6
		c0.5-0.4,0.9-0.7,1.4-1.1c0.4-0.3,0.9-0.6,1.3-0.9c1.5-0.9,3.3-1.8,5.2-2.6c0.1,0.2,0.2,0.3,0.4,0.6c0.1,0.2,0.3,0.5,0.5,0.8
		c0.1,0.1,0.2,0.3,0.2,0.4c0.1,0.1,0.2,0.3,0.2,0.5c0.2,0.3,0.4,0.7,0.6,1.1c0.2,0.4,0.4,0.8,0.5,1.3c0.1,0.2,0.2,0.5,0.3,0.7
		c0,0,0,0,0,0c0.1,0.2,0.1,0.3,0.2,0.5c0,0.1,0,0.2,0.1,0.2c0,0,0,0,0,0.1c0.1,0.3,0.1,0.5,0.2,0.8c0.1,0.2,0.1,0.5,0.2,0.7
		c0.1,0.3,0.1,0.6,0.1,0.8c0.2,1.3,0.1,2.7-0.4,4c0,0.1-0.1,0.2-0.1,0.4C53.1,37.5,52.1,38.6,50.8,39.6z M62.7,28.7
		c0.8,0.2,1.7,0.4,2.7,0.7c1.2,0.4,2.5,0.9,3.9,1.6c-0.7,1-2.3,3-4.7,4.8c-2.3,1.8-4.8,3.1-7.4,3.9c-1.7,0.5-3.4,0.8-5.2,0.9
		c0,0,0,0,0,0c0,0,0,0,0,0c1.5-1.1,2.5-2.4,3.1-4c0,0,0-0.1,0-0.1c0.4-1,0.6-2.1,0.6-3.1c0-1-0.1-2.1-0.3-3.1
		c-0.1-0.3-0.1-0.5-0.2-0.8c-0.1-0.2-0.1-0.4-0.2-0.6c0-0.1,0-0.1,0-0.2c0,0,0-0.1,0-0.1c0.7-0.2,1.8-0.4,3.2-0.4c0.5,0,1.1,0,1.7,0
		c0.2,0,0.5,0,0.7,0.1c0,0,0,0,0,0c0.2,0,0.5,0.1,0.8,0.1C61.9,28.5,62.3,28.6,62.7,28.7z"/>
</g>
</svg>
