<?xml version="1.0" encoding="utf-8"?>
<!-- Generator: Adobe Illustrator 19.1.1, SVG Export Plug-In . SVG Version: 6.00 Build 0)  -->
<svg version="1.1" id="Layer_1" focusable="false" xmlns="http://www.w3.org/2000/svg" xmlns:xlink="http://www.w3.org/1999/xlink"
	 x="0px" y="0px" viewBox="-129 141 352 512" style="enable-background:new -129 141 352 512;" xml:space="preserve">
<style type="text/css">
	.st0{fill:#325E1C;}
</style>
<path class="st0" d="M113.7,397l100.1-100.1c12.3-12.3,12.3-32.2,0-44.5l-22.2-22.2c-12.3-12.3-32.2-12.3-44.5,0L47,330.3
	L-53.1,230.2c-12.3-12.3-32.2-12.3-44.5,0l-22.2,22.2c-12.3,12.3-12.3,32.2,0,44.5L-19.7,397l-100.1,100.1
	c-12.3,12.3-12.3,32.2,0,44.5l22.2,22.2c12.3,12.3,32.2,12.3,44.5,0L47,463.7l100.1,100.1c12.3,12.3,32.2,12.3,44.5,0l22.2-22.2
	c12.3-12.3,12.3-32.2,0-44.5L113.7,397z"/>
</svg>
